<svg id="Capa_1" enable-background="new 0 0 512 512" height="512" viewBox="0 0 512 512" width="512" xmlns="http://www.w3.org/2000/svg"><g><g><path clip-rule="evenodd" d="m379.843 85.751-17.178 17.178-144.819 144.794-114.913 114.945-17.178 17.178c-3.685 3.685-3.26 0-7.653-4.394-16.157-16.129-42.349-16.129-58.477 0-16.157 16.158-16.157 42.321 0 58.479 10.715 10.715 26.673 14.769 41.158 10.346.992-.283 1.049-.028 1.786.737l4.677 4.677c.624.595.737.68.482 1.531-4.224 14.117-.794 30.019 10.375 41.159 16.129 16.158 42.32 16.158 58.449 0 16.157-16.129 16.157-42.321 0-58.451-4.394-4.394-8.079-3.969-4.365-7.682 5.726-5.726 11.452-11.424 17.178-17.15l55.586-55.616 204.144-204.122c5.726-5.726 11.423-11.452 17.149-17.178 3.713-3.713 3.288-.028 7.682 4.365 16.129 16.158 42.32 16.158 58.449 0 16.157-16.129 16.157-42.321 0-58.451-11.14-11.169-27.042-14.598-41.158-10.375-.85.255-.935.142-1.531-.482l-4.677-4.677c-.765-.737-1.02-.794-.737-1.786 4.422-14.485.369-30.444-10.346-41.159-16.157-16.158-42.32-16.158-58.477 0-16.129 16.129-16.129 42.321 0 58.479 4.394 4.395 8.079 3.97 4.394 7.655z" fill="#c6d0da" fill-rule="evenodd"/></g><g><path clip-rule="evenodd" d="m132.186 85.751 17.178 17.178 144.79 144.794 114.942 114.945 17.149 17.178c3.713 3.685 3.288 0 7.682-4.394 16.129-16.129 42.32-16.129 58.477 0 16.129 16.158 16.129 42.321 0 58.479-10.743 10.715-26.673 14.769-41.186 10.346-.992-.283-1.02-.028-1.786.737l-4.677 4.677c-.595.595-.737.68-.482 1.531 4.252 14.117.794 30.019-10.346 41.159-16.157 16.158-42.32 16.158-58.477 0-16.129-16.129-16.129-42.321 0-58.451 4.394-4.394 8.079-3.969 4.394-7.682-5.726-5.726-11.452-11.424-17.178-17.15l-55.586-55.616-204.147-204.122c-5.726-5.726-11.452-11.452-17.178-17.178-3.685-3.713-3.26-.028-7.653 4.365-16.157 16.158-42.349 16.158-58.477 0-16.157-16.129-16.157-42.321 0-58.451 11.14-11.169 27.07-14.598 41.158-10.375.85.255.935.142 1.559-.482l4.677-4.677c.737-.737 1.02-.794.709-1.786-4.422-14.485-.368-30.444 10.375-41.159 16.129-16.158 42.32-16.158 58.449 0 16.157 16.129 16.157 42.321 0 58.479-4.395 4.395-8.08 3.97-4.366 7.655z" fill="#c6d0da" fill-rule="evenodd"/></g><g><path clip-rule="evenodd" d="m492.404 99.187c-16.157 16.129-42.349 16.129-58.477 0-4.394-4.394-3.968-8.079-7.682-4.394l-17.149 17.178-46.119 46.12c5.641 6.973 10.63 14.513 14.825 22.535l31.294-31.266 17.149-17.178c3.713-3.713 3.288-.028 7.682 4.365 16.129 16.158 42.32 16.158 58.449 0 12.982-12.954 15.533-32.4 7.682-47.906-1.928 3.799-4.48 7.371-7.654 10.546z" fill="#a0aab7" fill-rule="evenodd"/></g><g><path clip-rule="evenodd" d="m136.551 492.382c16.157-16.129 16.157-42.321 0-58.451-4.394-4.394-8.079-3.969-4.365-7.682l17.178-17.15 13.748-13.748c-2.523-3.628-3.997-8.022-3.997-12.728v-20.665l-41.64 41.613-17.178 17.178c-3.685 3.713 0 3.288 4.394 7.682 16.157 16.129 16.157 42.321 0 58.451-5.641 5.669-12.529 9.326-19.785 11.027 16.014 10.347 37.614 8.504 51.645-5.527z" fill="#a0aab7" fill-rule="evenodd"/></g><g><path clip-rule="evenodd" d="m352.914 342.145v40.479c0 12.302-10.091 22.365-22.393 22.365h-149.042c-12.302 0-22.365-10.063-22.365-22.365v-40.479c-25.114-24.917-40.648-59.443-40.648-97.597 0-75.969 61.567-137.537 137.534-137.537s137.534 61.569 137.534 137.537c0 38.154-15.534 72.681-40.62 97.597z" fill="#faf8f9" fill-rule="evenodd"/></g><g><path clip-rule="evenodd" d="m377.802 180.627c-10.375-19.729-25.398-36.624-43.596-49.238-22.223-15.364-49.152-24.378-78.206-24.378-7.285 0-14.428.567-21.401 1.644 31.322 4.904 59.129 20.381 79.68 42.633 15.505 16.781 26.872 37.446 32.484 60.378 2.608 10.545 3.968 21.543 3.968 32.882 0 17.745-3.345 34.696-9.467 50.287-7.058 17.915-17.744 33.988-31.152 47.31v14.372 26.107c0 7.143-3.401 13.521-8.645 17.632-3.798 2.976-8.589 4.734-13.748 4.734h42.802c7.597 0 14.343-3.827 18.396-9.638 2.523-3.628 3.997-8.022 3.997-12.728v-40.479c5.981-5.953 11.423-12.444 16.242-19.389 15.392-22.224 24.377-49.153 24.377-78.208.001-23.074-5.669-44.816-15.731-63.921z" fill="#e5e1e5" fill-rule="evenodd"/></g><g><path clip-rule="evenodd" d="m149.363 102.929-17.178-17.178c-3.713-3.685-.028-3.26 4.365-7.654 16.157-16.158 16.157-42.35 0-58.479-13.776-13.776-34.837-15.789-50.767-6.066 4.847 2.013 9.382 4.989 13.323 8.929 16.129 16.129 16.129 42.321 0 58.479-4.394 4.394-8.079 3.969-4.394 7.654l17.178 17.178 44.219 44.221c6.548-6.945 13.833-13.181 21.713-18.624z" fill="#a0aab7" fill-rule="evenodd"/></g><g><path clip-rule="evenodd" d="m426.245 379.846-17.149-17.178-39.939-39.912c-4.819 6.945-10.261 13.436-16.242 19.389v4.677l53.205 53.206 17.178 17.15c3.685 3.713 3.26.028 7.653-4.365 16.157-16.158 42.32-16.158 58.477 0 3.968 3.969 6.973 8.561 8.986 13.465 9.779-15.931 7.767-37.021-6.009-50.825-16.157-16.129-42.349-16.129-58.477 0-4.395 4.393-3.97 8.078-7.683 4.393z" fill="#a0aab7" fill-rule="evenodd"/></g><g><path clip-rule="evenodd" d="m236.952 228.617c-3.855-17.49-16.185-30.302-30.784-30.302-13.067 0-24.321 10.261-29.31 24.973-1.757 5.187-2.721 10.942-2.721 17.008 0 15.165 6.123 28.46 15.335 35.83 4.847 3.883 10.573 6.123 16.696 6.123 7.682 0 14.711-3.515 20.239-9.411 7.2-7.71 11.792-19.417 11.792-32.542 0-4.054-.425-7.965-1.247-11.679z" fill="#918291" fill-rule="evenodd"/></g><g><path clip-rule="evenodd" d="m335.141 223.288c-4.961-14.712-16.214-24.973-29.31-24.973-14.598 0-26.928 12.813-30.784 30.302-.822 3.713-1.247 7.625-1.247 11.679 0 13.124 4.592 24.832 11.792 32.542 5.527 5.896 12.586 9.411 20.239 9.411 6.123 0 11.849-2.239 16.696-6.123 9.212-7.37 15.363-20.665 15.363-35.83.001-6.066-.991-11.82-2.749-17.008z" fill="#918291" fill-rule="evenodd"/></g><g><path clip-rule="evenodd" d="m236.952 228.617c-3.855-17.49-16.185-30.302-30.784-30.302-3.883 0-7.625.907-11.083 2.58 10.375 4.11 18.51 14.882 21.514 28.517.822 3.713 1.247 7.625 1.247 11.65 0 2.438-.142 4.819-.454 7.115-.567 4.422-1.672 8.589-3.203 12.444-2.041 5.017-4.79 9.439-8.135 12.983-2.721 2.92-5.811 5.244-9.156 6.86 2.92 1.162 6.038 1.786 9.269 1.786 7.682 0 14.711-3.515 20.239-9.411 7.2-7.71 11.792-19.417 11.792-32.542.001-4.055-.424-7.966-1.246-11.68z" fill="#685d68" fill-rule="evenodd"/></g><g><path clip-rule="evenodd" d="m335.141 223.288c-4.961-14.712-16.214-24.973-29.31-24.973-3.883 0-7.597.907-11.055 2.58 8.957 3.543 16.27 12.104 20.012 23.188 1.757 5.131 2.721 10.828 2.75 16.809v.17c0 9.014-2.183 17.348-5.868 24.208-2.523 4.677-5.754 8.646-9.496 11.622-1.757 1.417-3.628 2.636-5.612 3.572 2.948 1.162 6.066 1.786 9.269 1.786 6.123 0 11.849-2.239 16.696-6.123 9.212-7.37 15.363-20.665 15.363-35.83.001-6.067-.991-11.821-2.749-17.009z" fill="#685d68" fill-rule="evenodd"/></g><g><path d="m428.623 370.148c-.251.251-.489.5-.717.745l-13.509-13.53-35.615-35.591c7.912-12.554 13.895-26.282 17.645-40.729 1.041-4.009-1.364-8.104-5.374-9.145-4.006-1.039-8.104 1.366-9.145 5.375-5.845 22.511-17.697 43.102-34.275 59.546-1.42 1.408-2.219 3.325-2.219 5.325v40.479c0 8.196-6.682 14.865-14.894 14.865h-21.555v-38.988c0-4.143-3.357-7.5-7.5-7.5s-7.5 3.357-7.5 7.5v38.988h-30.465v-38.988c0-4.143-3.357-7.5-7.5-7.5s-7.5 3.357-7.5 7.5v38.988h-30.438v-38.988c0-4.143-3.357-7.5-7.5-7.5s-7.5 3.357-7.5 7.5v38.988h-21.583c-5.039 0-9.494-2.526-12.183-6.373-.048-.07-.101-.137-.151-.206-1.597-2.369-2.53-5.22-2.53-8.286v-40.479c0-1.999-.798-3.916-2.218-5.324-24.781-24.587-38.43-57.357-38.43-92.273 0-71.703 58.333-130.037 130.033-130.037 71.701 0 130.034 58.334 130.034 130.037 0 4.143 3.357 7.5 7.5 7.5s7.5-3.357 7.5-7.5c0-22.331-5.077-43.498-14.131-62.412l27.497-27.472c2.864-2.865 5.723-5.73 8.581-8.596 1.646-1.649 3.291-3.299 4.938-4.949.223.24.456.482.701.728 9.218 9.233 21.481 14.319 34.532 14.319s25.314-5.086 34.523-14.311c9.233-9.217 14.319-21.481 14.319-34.532 0-13.052-5.085-25.316-14.309-34.523-11.825-11.855-28.787-16.747-45.024-13.191l-.26-.26c3.609-16.17-1.271-33.134-13.171-45.034-19.048-19.046-50.039-19.044-69.085 0-19.029 19.03-19.032 50.02 0 69.085.246.246.49.481.731.705l-17.225 17.202c-2.931 2.927-2.934 7.676-.007 10.606 2.928 2.931 7.677 2.934 10.606.007l20.895-20.865c1.115-1.116 4.079-4.08 3.668-8.479-.398-4.26-3.49-6.37-5.338-7.632-.888-.605-1.806-1.232-2.72-2.146-13.189-13.212-13.191-34.689-.004-47.876 13.197-13.198 34.673-13.2 47.87 0 8.729 8.728 12.056 21.942 8.478 33.666-.013.041-.025.083-.037.124-1.006 3.511-.14 6.57 2.573 9.094l4.685 4.675c2.537 2.647 5.583 3.462 9.046 2.428 11.99-3.588 24.9-.336 33.71 8.496 6.395 6.385 9.917 14.879 9.917 23.919 0 9.039-3.522 17.533-9.926 23.926-6.384 6.395-14.878 9.917-23.917 9.917s-17.533-3.522-23.921-9.922c-.914-.913-1.541-1.829-2.146-2.714-1.264-1.849-3.38-4.942-7.643-5.338-4.403-.412-7.38 2.567-8.5 3.687-2.864 2.865-5.723 5.73-8.581 8.596-2.854 2.861-5.707 5.722-8.565 8.58l-24.394 24.372c-25.584-41.325-71.328-68.916-123.4-68.916-28.339 0-54.8 8.178-77.163 22.286l-37.702-37.703c.237-.221.478-.451.72-.693 9.23-9.231 14.314-21.503 14.314-34.554 0-13.054-5.086-25.318-14.31-34.527-9.218-9.234-21.482-14.32-34.531-14.32-.001 0 0 0-.001 0-13.05 0-25.315 5.086-34.521 14.308-11.918 11.886-16.812 28.841-13.199 45.06l-.243.243c-16.236-3.573-33.209 1.318-45.038 13.178-9.235 9.218-14.32 21.482-14.32 34.534 0 13.051 5.086 25.315 14.311 34.523 9.218 9.233 21.482 14.319 34.536 14.319 13.051 0 25.321-5.084 34.553-14.314.241-.242.473-.482.692-.719l41 41.001c-9.055 18.915-14.132 40.082-14.132 62.414 0 37.89 14.411 73.517 40.647 100.675v37.401c0 4.022.804 7.859 2.252 11.365l-9.807 9.808c-2.959 2.959-5.918 5.911-8.877 8.863-2.767 2.759-5.533 5.519-8.301 8.286-1.12 1.12-4.096 4.097-3.687 8.5.396 4.262 3.489 6.378 5.337 7.642.886.605 1.801 1.232 2.72 2.151 6.395 6.384 9.917 14.878 9.917 23.918 0 9.039-3.522 17.533-9.927 23.926-6.383 6.395-14.876 9.917-23.915 9.917s-17.533-3.521-23.928-9.928c-8.821-8.8-12.073-21.712-8.487-33.696 1.031-3.443.232-6.472-2.411-9.035l-4.558-4.558-.126-.134c-2.521-2.718-5.582-3.585-9.093-2.584-.044.013-.088.025-.132.039-11.725 3.577-24.937.252-33.664-8.476-13.198-13.199-13.198-34.675 0-47.873 13.187-13.188 34.664-13.184 47.87 0 .918.917 1.544 1.835 2.15 2.723 1.261 1.848 3.372 4.94 7.632 5.339 4.395.413 7.361-2.553 8.479-3.668l32.318-32.349c2.926-2.932 2.921-7.681-.011-10.606-2.933-2.926-7.682-2.922-10.606.011l-28.648 28.678c-.226-.243-.463-.49-.711-.738-19.061-19.027-50.049-19.026-69.08.005-19.046 19.047-19.046 50.038 0 69.086 11.899 11.899 28.866 16.778 45.031 13.171l.26.259c-3.556 16.233 1.335 33.198 13.183 45.016 9.219 9.234 21.483 14.319 34.535 14.319 13.05 0 25.313-5.086 34.521-14.311 9.233-9.218 14.319-21.481 14.319-34.532 0-13.052-5.086-25.315-14.314-34.528-.246-.247-.491-.481-.732-.706 1.552-1.549 3.103-3.096 4.653-4.644 2.964-2.956 5.928-5.913 8.892-8.876l8.339-8.339c5.087 4.018 11.503 6.425 18.473 6.425h149.042c6.98 0 13.404-2.409 18.497-6.43l8.343 8.344c2.866 2.865 5.731 5.724 8.597 8.582 1.646 1.642 3.293 3.284 4.935 4.924-.246.229-.495.468-.747.719-19.039 19.039-19.039 50.019 0 69.058 9.523 9.522 22.033 14.284 34.542 14.284 12.51 0 25.02-4.762 34.543-14.285 11.854-11.855 16.733-28.82 13.162-45.023l.256-.257c16.164 3.602 33.136-1.277 45.064-13.174 19.01-19.045 19.01-50.032-.01-69.086-19.062-19.028-50.05-19.026-69.08.003zm-337.544-243.249c-1.115-1.123-4.08-4.12-8.487-3.708-4.268.39-6.382 3.484-7.645 5.334-.605.887-1.232 1.803-2.148 2.719-6.397 6.398-14.901 9.922-23.945 9.922-9.042 0-17.537-3.522-23.93-9.926-6.395-6.384-9.917-14.878-9.917-23.917 0-9.04 3.521-17.534 9.928-23.93 8.804-8.825 21.714-12.08 33.695-8.486 5.133 1.536 8.024-1.37 9.016-2.363l4.677-4.677.154-.149c3.366-3.206 3.167-6.766 2.424-9.13-3.58-11.729-.244-24.94 8.51-33.671 6.382-6.396 14.877-9.917 23.916-9.917s17.532 3.522 23.925 9.926c6.395 6.384 9.917 14.879 9.917 23.921 0 9.045-3.523 17.549-9.922 23.947-.916.916-1.833 1.543-2.72 2.148-1.849 1.264-4.943 3.378-5.333 7.645-.402 4.407 2.583 7.371 3.688 8.468l39.519 39.52c-13.355 10.522-24.816 23.341-33.799 37.849zm396.029 301.722c-8.884 8.86-21.799 12.107-33.704 8.482-.043-.014-.085-.026-.128-.038-3.456-.985-6.479-.153-8.983 2.476l-4.907 4.913c-2.544 2.528-3.316 5.532-2.294 8.931 3.602 11.958.356 24.868-8.469 33.693-13.197 13.201-34.673 13.199-47.87 0-13.191-13.19-13.191-34.652 0-47.844.916-.916 1.832-1.542 2.719-2.148 1.847-1.262 4.937-3.374 5.342-7.629.418-4.395-2.535-7.371-3.667-8.512-2.865-2.864-5.73-5.723-8.595-8.58-2.861-2.854-5.723-5.708-8.583-8.568l-9.808-9.809c1.449-3.505 2.254-7.342 2.254-11.364v-37.402c3.392-3.514 6.589-7.192 9.596-11.009l33.777 33.754 17.173 17.202c1.121 1.111 4.094 4.073 8.491 3.647 4.255-.404 6.368-3.495 7.63-5.342.606-.887 1.232-1.804 2.148-2.719 13.187-13.188 34.663-13.184 47.865-.005 13.178 13.202 13.178 34.682.013 47.871z"/><path d="m166.637 240.296c0 27.269 17.733 49.453 39.531 49.453 21.797 0 39.53-22.185 39.53-49.453 0-27.284-17.733-49.481-39.53-49.481-21.797-.001-39.531 22.197-39.531 49.481zm64.062 0c0 18.676-11.233 34.453-24.53 34.453s-24.531-15.777-24.531-34.453c0-19.013 11.005-34.481 24.531-34.481s24.53 15.468 24.53 34.481z"/><path d="m266.301 240.296c0 27.269 17.733 49.453 39.53 49.453 21.813 0 39.56-22.185 39.56-49.453 0-27.284-17.746-49.481-39.56-49.481-21.796-.001-39.53 22.197-39.53 49.481zm64.09 0c0 18.997-11.018 34.453-24.56 34.453-13.297 0-24.53-15.777-24.53-34.453 0-19.013 11.004-34.481 24.53-34.481 13.543-.001 24.56 15.468 24.56 34.481z"/></g></g></svg>