<svg height="512" viewBox="0 0 512 512" width="512" xmlns="http://www.w3.org/2000/svg"><path d="m97.608 154.177h316.784v203.647h-316.784z" fill="#60d1e0" transform="matrix(.707 -.707 .707 .707 -106.039 256)"/><path d="m440 216-224 224-93.58-93.58c92.69-39.76 189.64-99.58 262.14-185.86z" fill="#5ac6d4"/><path d="m429.657 205.657-11.314-11.314 40.8-40.8a71.2 71.2 0 1 0 -100.682-100.689l-40.8 40.8-11.318-11.311 40.8-40.8a87.2 87.2 0 0 1 123.318 123.311z" fill="#c7c7c5"/><path d="m103.2 496a87.2 87.2 0 0 1 -61.661-148.852l40.8-40.8 11.312 11.312-40.8 40.805a71.2 71.2 0 0 0 100.688 100.683l40.805-40.8 11.312 11.312-40.8 40.805a86.622 86.622 0 0 1 -61.656 25.535z" fill="#c7c7c5"/><g fill="#4eb9c7"><path d="m97.608 248.001h316.784v15.998h-316.784z" transform="matrix(.707 -.707 .707 .707 -106.039 256)"/><path d="m129.608 280.001h316.784v15.998h-316.784z" transform="matrix(.707 -.707 .707 .707 -119.294 288)"/><path d="m65.608 216.001h316.784v15.998h-316.784z" transform="matrix(.707 -.707 .707 .707 -92.784 224)"/></g></svg>