<svg id="Layer_2" enable-background="new 0 0 64 64" height="512" viewBox="0 0 64 64" width="512" xmlns="http://www.w3.org/2000/svg"><g><g><g><path d="m61.41 26.59c.38.37.59.88.59 1.41s-.21 1.04-.59 1.41l-2 2c-.37.38-.88.59-1.41.59s-1.04-.21-1.41-.59c-.38-.37-.59-.88-.59-1.41s.21-1.04.59-1.41l2-2c.37-.38.88-.59 1.41-.59s1.04.21 1.41.59z" fill="#5cd6b3"/></g><g><circle cx="58" cy="10" fill="#ef7385" r="2"/></g><g><path d="m59.47 40.02c.34.59.53 1.26.53 1.98 0 1.1-.45 2.1-1.17 2.83-.35.35-.77.63-1.23.83-.95-.51-1.6-1.5-1.6-2.66 0-1.66 1.34-3 3-3 .16 0 .31.01.46.03z" fill="#ef7385"/></g><g><path d="m59.47 40.02-.01.01c-.15-.02-.3-.03-.46-.03-1.66 0-3 1.34-3 3 0 1.16.65 2.15 1.6 2.66-.49.22-1.03.34-1.6.34-2.21 0-4-1.79-4-4 0-1.1.45-2.1 1.17-2.83.73-.72 1.73-1.17 2.83-1.17s2.1.45 2.83 1.17c.25.25.47.54.64.85z" fill="#ed5565"/></g><g><path d="m56 19v2c0 1.1-.9 2-2 2s-2-.9-2-2v-2c0-1.1.9-2 2-2 .55 0 1.05.22 1.41.59.37.36.59.86.59 1.41z" fill="#5cd6b3"/></g><g><path d="m46 62h-12v-28h2.13c1.03 0 1.87-.84 1.87-1.87 0-.09-.01-.17-.02-.26l-.02-.18 4.04 2.31c0 1.1.9 2 2 2h1.87c5.01 4.45 8.13 10.93 8.13 18.09v7.91z" fill="#e6e9ed"/></g><g><path d="m48 26v8c0 1.1-.9 2-2 2h-.13-1.87c-1.1 0-2-.9-2-2v-8c0-1.1.9-2 2-2h2c.38 0 .73.1 1.03.28.58.36.97 1 .97 1.72z" fill="#838f9b"/></g><g><path d="m48 16c0 2.79-.33 5.57-.97 8.28-.3-.18-.65-.28-1.03-.28h-2v-4-2c0-4.42-3.58-8-8-8h-8c-4.42 0-8 3.58-8 8v2 4h-2c-.38 0-.73.1-1.03.28-.64-2.71-.97-5.49-.97-8.28 0-7.73 6.27-14 14-14h4c3.86 0 7.36 1.57 9.9 4.1 2.53 2.54 4.1 6.04 4.1 9.9z" fill="#e6e9ed"/></g><g><path d="m44 20v4c-1.1 0-2 .9-2 2l-5.29-3.02-.42-2.98z" fill="#e6e9ed"/></g><g><path d="m44 18v2h-7.71l-.04-.28c-.15-.99-.99-1.72-1.98-1.72h-4.54c-.99 0-1.83.73-1.98 1.72l-.04.28h-7.71v-2c0-4.42 3.58-8 8-8h8c4.42 0 8 3.58 8 8z" fill="#f0d0b4"/></g><g><path d="m38 44h4v4h-4z" fill="#5cd6b3"/></g><g><path d="m42 26v8l-4.04-2.31-1.25-8.71z" fill="#aab2bd"/></g><g><path d="m37.98 31.87c.01.09.02.17.02.26 0 1.03-.84 1.87-1.87 1.87h-2.13-4-2.13c-1.03 0-1.87-.84-1.87-1.87 0-.09.01-.17.02-.26l.02-.18 1.25-8.71.42-2.98.04-.28c.15-.99.99-1.72 1.98-1.72h4.54c.99 0 1.83.73 1.98 1.72l.04.28.42 2.98 1.25 8.71z" fill="#838f9b"/></g><g><path d="m32 22c2.21 0 4 1.79 4 4s-1.79 4-4 4-4-1.79-4-4 1.79-4 4-4z" fill="#5cd6b3"/></g><g><path d="m30 34h4v28h-4z" fill="#5cd6b3"/></g><g><path d="m18 62h-8v-7.91c0-.03 0-.06 0-.09.03-7.12 3.14-13.57 8.13-18h1.87c1.1 0 2-.9 2-2l4.04-2.31-.02.18c-.01.09-.02.17-.02.26 0 1.03.84 1.87 1.87 1.87h2.13v28z" fill="#e6e9ed"/></g><g><path d="m27.71 20-.42 2.98-5.29 3.02c0-1.1-.9-2-2-2v-4z" fill="#e6e9ed"/></g><g><path d="m27.29 22.98-1.25 8.71-4.04 2.31v-8z" fill="#aab2bd"/></g><g><path d="m16 31.17v-5.17c0-.72.39-1.36.97-1.72.3-.18.65-.28 1.03-.28h2c1.1 0 2 .9 2 2v8c0 1.1-.9 2-2 2h-1.87-.13c-.34 0-.66-.08-.94-.23-.63-.34-1.06-1.01-1.06-1.77z" fill="#838f9b"/></g><g><path d="m17.06 35.77-1.65 1.64c-.37.38-.88.59-1.41.59s-1.04-.21-1.41-.59c-.38-.37-.59-.88-.59-1.41s.21-1.04.59-1.41l3.41-3.42v2.83c0 .76.43 1.43 1.06 1.77z" fill="#5cd6b3"/></g><g><path d="m10.83 5.17c.72.73 1.17 1.73 1.17 2.83s-.45 2.1-1.17 2.83c-.73.72-1.73 1.17-2.83 1.17s-2.1-.45-2.83-1.17c-.25-.25-.47-.54-.64-.85l.01-.01c.15.02.3.03.46.03 1.66 0 3-1.34 3-3 0-1.16-.65-2.15-1.6-2.66.49-.22 1.03-.34 1.6-.34 1.1 0 2.1.45 2.83 1.17z" fill="#ed5565"/></g><g><path d="m9.41 52.59c.38.37.59.88.59 1.41s-.21 1.04-.59 1.41l-4 4c-.37.38-.88.59-1.41.59s-1.04-.21-1.41-.59c-.38-.37-.59-.88-.59-1.41s.21-1.04.59-1.41l4-4c.37-.38.88-.59 1.41-.59s1.04.21 1.41.59z" fill="#5cd6b3"/></g><g><path d="m7.41 22.59c.38.37.59.88.59 1.41s-.21 1.04-.59 1.41c-.37.38-.88.59-1.41.59s-1.04-.21-1.41-.59l-2-2c-.38-.37-.59-.88-.59-1.41s.21-1.04.59-1.41c.37-.38.88-.59 1.41-.59s1.04.21 1.41.59z" fill="#5cd6b3"/></g><g><path d="m8 7c0 1.66-1.34 3-3 3-.16 0-.31-.01-.46-.03l-.01.01c-.34-.59-.53-1.26-.53-1.98 0-1.1.45-2.1 1.17-2.83.35-.35.77-.63 1.23-.83.95.51 1.6 1.5 1.6 2.66z" fill="#ef7385"/></g></g><circle cx="32" cy="26" r="1"/><circle cx="26" cy="16" r="1"/><circle cx="38" cy="16" r="1"/><path d="m37 49h6v-6h-6zm2-4h2v2h-2z"/><path d="m37 51h2v2h-2z"/><path d="m41 51h2v2h-2z"/><path d="m3.833 10.753-1.54 1.54 1.414 1.414 1.54-1.54c.525.348 1.116.602 1.753.732v2.101h2v-2.101c.637-.13 1.228-.384 1.753-.732l1.54 1.54 1.414-1.414-1.54-1.54c.348-.525.602-1.116.732-1.753h2.101v-2h-2.101c-.13-.637-.384-1.229-.732-1.753l1.54-1.54-1.414-1.414-1.54 1.54c-.525-.348-1.116-.602-1.753-.732v-2.101h-2v2.101c-.637.13-1.228.384-1.753.732l-1.54-1.54-1.414 1.414 1.54 1.54c-.348.524-.602 1.116-.732 1.753h-2.101v2h2.101c.13.637.384 1.229.732 1.753zm7.167-2.753c0 1.654-1.346 3-3 3-.499 0-.963-.134-1.378-.351 1.398-.624 2.378-2.022 2.378-3.649 0-.699-.186-1.365-.513-1.951 1.422.234 2.513 1.463 2.513 2.951zm-4.673-2.489c.42.375.673.909.673 1.489 0 1.042-.803 1.89-1.821 1.982-.108-.309-.179-.636-.179-.982 0-1.035.527-1.949 1.327-2.489z"/><path d="m60.167 39.247 1.54-1.54-1.414-1.414-1.54 1.54c-.524-.348-1.116-.602-1.753-.732v-2.101h-2v2.101c-.637.13-1.229.384-1.753.732l-1.54-1.54-1.414 1.414 1.54 1.54c-.303.457-.52.972-.66 1.517-.971-1.558-2.114-3.016-3.419-4.342.752-.545 1.246-1.425 1.246-2.422v-8c0-.823-.334-1.568-.872-2.111.571-2.588.872-5.236.872-7.889 0-8.271-6.729-15-15-15h-4c-8.271 0-15 6.729-15 15 0 2.652.302 5.301.872 7.889-.538.543-.872 1.288-.872 2.111v4.758l-3.121 3.121c-.567.566-.879 1.32-.879 2.121s.312 1.555.879 2.121c.566.567 1.32.879 2.121.879.011 0 .021-.003.032-.003-2.672 3.572-4.361 7.803-4.868 12.257-1.092-.438-2.429-.232-3.286.625l-4 4c-.566.566-.878 1.32-.878 2.121s.312 1.555.879 2.121c.566.567 1.32.879 2.121.879s1.555-.312 2.121-.879l2.879-2.879v5.758h46v-8.909c0-2.61-.412-5.176-1.187-7.616.375.184.767.339 1.187.424v2.101h2v-2.101c.637-.13 1.229-.384 1.753-.732l1.54 1.54 1.414-1.414-1.54-1.54c.348-.524.602-1.116.732-1.753h2.101v-2h-2.101c-.13-.637-.384-1.229-.732-1.753zm-21.29-8.183-.887-6.204 3.01 1.72v5.697zm-1.885.948c.006.04.008.081.008.121 0 .478-.389.867-.867.867h-8.266c-.478 0-.867-.389-.867-.867 0-.04.002-.081.009-.123l.54-3.78c.823 1.635 2.499 2.77 4.451 2.77s3.628-1.135 4.451-2.771zm-3.992 2.988v26h-2v-26zm-7.876-3.936-2.124 1.213v-5.697l3.01-1.72zm-7.124 3.936c-.552 0-1-.448-1-1v-8c0-.551.448-1 1-1h2c.552 0 1 .449 1 1v8c0 .552-.448 1-1 1zm25-16h-5.911c-.418-1.172-1.542-2-2.823-2h-4.531c-1.281 0-2.405.828-2.823 2h-5.912v-1c0-3.86 3.141-7 7-7h8c3.859 0 7 3.14 7 7zm-11 2c-1.442 0-2.734.623-3.647 1.603l.392-2.745c.069-.489.495-.858.989-.858h4.531c.494 0 .92.369.989.859l.392 2.745c-.912-.981-2.204-1.604-3.646-1.604zm3 5c0 1.654-1.346 3-3 3s-3-1.346-3-3 1.346-3 3-3 3 1.346 3 3zm-14-5h5.561l-.193 1.352-3.779 2.159c-.354-.613-.913-1.086-1.589-1.327zm20.411 3.512-3.779-2.159-.193-1.353h5.561v2.184c-.676.241-1.235.714-1.589 1.328zm1.589 1.488c0-.551.448-1 1-1h2c.552 0 1 .449 1 1v8c0 .552-.448 1-1 1h-2c-.552 0-1-.448-1-1zm-13-23h4c7.168 0 13 5.832 13 13 0 2.361-.256 4.718-.734 7.027-.089-.008-.175-.027-.266-.027h-1v-5c0-4.962-4.037-9-9-9h-8c-4.963 0-9 4.038-9 9v5h-1c-.091 0-.177.019-.266.027-.478-2.31-.734-4.667-.734-7.027 0-7.168 5.832-13 13-13zm-16.707 33.707c-.191-.191-.293-.436-.293-.707s.102-.516.293-.707l1.707-1.707v.414c0 .678.234 1.297.615 1.799l-.908.908c-.383.383-1.031.383-1.414 0zm-8.586 22c-.383.383-1.031.383-1.414 0-.191-.191-.293-.436-.293-.707s.102-.516.293-.707l4-4c.191-.191.436-.293.707-.293s.516.102.707.293.293.436.293.707-.102.516-.293.707zm6.293-4.616c0-6.496 2.741-12.7 7.524-17.091h1.476c1.443 0 2.649-1.024 2.935-2.382l2.316-1.323c.447 1.002 1.449 1.705 2.616 1.705h1.133v26h-10v-11.172c0-2.061-.836-4.078-2.293-5.535l-1.414 1.414c1.085 1.085 1.707 2.587 1.707 4.121v11.172h-6zm42 6.909h-6v-11.172c0-1.534.622-3.036 1.707-4.121l-1.414-1.414c-1.457 1.457-2.293 3.475-2.293 5.535v11.172h-10v-26h1.133c1.167 0 2.169-.703 2.616-1.706l2.316 1.323c.286 1.359 1.492 2.383 2.935 2.383h1.476c4.783 4.391 7.524 10.595 7.524 17.091zm0-19c0-1.654 1.346-3 3-3 .499 0 .963.134 1.378.351-1.398.624-2.378 2.021-2.378 3.649 0 .699.186 1.365.514 1.951-1.423-.234-2.514-1.463-2.514-2.951zm4.673 2.488c-.42-.374-.673-.908-.673-1.488 0-1.041.803-1.89 1.821-1.982.108.309.179.636.179.982 0 1.035-.527 1.949-1.327 2.488z"/><path d="m59 7.184v-2.184h-2v2.184c-.847.302-1.514.969-1.816 1.816h-2.184v2h2.184c.302.847.969 1.514 1.816 1.816v2.184h2v-2.184c.847-.302 1.514-.969 1.816-1.816h2.184v-2h-2.184c-.302-.847-.969-1.514-1.816-1.816zm-1 3.816c-.552 0-1-.449-1-1s.448-1 1-1 1 .449 1 1-.448 1-1 1z"/><path d="m3.879 26.121c.566.567 1.32.879 2.121.879s1.555-.312 2.121-.879c.566-.566.879-1.32.879-2.121s-.313-1.555-.879-2.121l-2-2c-1.133-1.134-3.109-1.134-4.242 0-.567.566-.879 1.32-.879 2.121s.312 1.555.879 2.121zm-.586-4.828c.191-.191.436-.293.707-.293s.516.102.707.293l2 2c.191.192.293.436.293.707s-.102.515-.293.707c-.383.383-1.031.383-1.414 0l-2-2c-.191-.192-.293-.436-.293-.707s.102-.515.293-.707z"/><path d="m57.879 25.879-2 2c-.567.566-.879 1.32-.879 2.121s.312 1.555.879 2.121c.566.567 1.32.879 2.121.879s1.555-.312 2.121-.879l2-2c.566-.566.879-1.32.879-2.121s-.313-1.555-.879-2.121c-1.133-1.134-3.109-1.134-4.242 0zm2.828 2.828-2 2c-.383.383-1.031.383-1.414 0-.191-.192-.293-.436-.293-.707s.102-.515.293-.707l2-2c.191-.191.436-.293.707-.293s.516.102.707.293c.191.192.293.436.293.707s-.102.515-.293.707z"/><path d="m3 31h2v2h-2z"/><path d="m11 17h2v2h-2z"/><path d="m7 43h2v2h-2z"/><path d="m49 3h2v2h-2z"/><path d="m61 19h2v2h-2z"/><path d="m51 29h2v2h-2z"/><path d="m59 53h2v2h-2z"/><path d="m57 61h2v2h-2z"/><path d="m57 21v-2c0-1.654-1.346-3-3-3s-3 1.346-3 3v2c0 1.654 1.346 3 3 3s3-1.346 3-3zm-4 0v-2c0-.551.448-1 1-1s1 .449 1 1v2c0 .551-.448 1-1 1s-1-.449-1-1z"/></g></svg>