<svg id="_x33_0" enable-background="new 0 0 64 64" height="512" viewBox="0 0 64 64" width="512" xmlns="http://www.w3.org/2000/svg"><g><g><g><path d="m14 36v6h-11c-.55 0-1-.45-1-1v-2c0-1.66 1.34-3 3-3h1z" fill="#969faa"/></g><g><path d="m62 39v2c0 .55-.45 1-1 1h-8.17-.01c-.4-1.17-1.51-2-2.82-2v-4h8 1c1.66 0 3 1.34 3 3z" fill="#969faa"/></g><g><path d="m52 19c0 1.92-1.08 3.58-2.66 4.42h-.01c-.97-3.29-2.98-6.13-5.64-8.17.88-.77 2.04-1.25 3.31-1.25 2.76 0 5 2.24 5 5z" fill="#e6e9ed"/></g><g><path d="m50 32v-4c0-1.59-.23-3.13-.67-4.58h.01c1.58-.84 2.66-2.5 2.66-4.42 0-2.76-2.24-5-5-5-1.27 0-2.43.48-3.31 1.25-1.26-.95-2.67-1.73-4.19-2.28.98-.92 2.12-1.66 3.39-2.17 1.27-.52 2.65-.8 4.11-.8 6.08 0 11 4.92 11 11v15h-8z" fill="#ccd1d9"/></g><g><path d="m14 32v4h-8v-15c0-6.08 4.92-11 11-11 1.46 0 2.84.28 4.11.8 1.27.51 2.41 1.25 3.39 2.17-1.52.55-2.93 1.33-4.19 2.28-.88-.77-2.04-1.25-3.31-1.25-2.76 0-5 2.24-5 5 0 1.92 1.08 3.58 2.66 4.42h.01c-.44 1.45-.67 2.99-.67 4.58z" fill="#ccd1d9"/></g><g><path d="m20.31 15.25c-2.66 2.04-4.67 4.88-5.64 8.17h-.01c-1.58-.84-2.66-2.5-2.66-4.42 0-2.76 2.24-5 5-5 1.27 0 2.43.48 3.31 1.25z" fill="#e6e9ed"/></g><g><path d="m20.31 15.25c1.26-.95 2.67-1.73 4.19-2.28h.01c1.71-.63 3.56-.97 5.49-.97v4c-6.63 0-12 5.37-12 12v26h-3c-.34 0-.68.03-1 .1v-12.1-6-4-4c0-1.59.23-3.13.67-4.58.97-3.29 2.98-6.13 5.64-8.17z" fill="#aab2bd"/></g><g><path d="m43.69 15.25c2.66 2.04 4.67 4.88 5.64 8.17.44 1.45.67 2.99.67 4.58v4 4 4c-1.66 0-3 1.34-3 3 0 0-.21-.62-1-1.3v-13.7c0-6.63-5.37-12-12-12v-4c1.93 0 3.78.34 5.49.97h.01c1.52.55 2.93 1.33 4.19 2.28z" fill="#aab2bd"/></g><g><path d="m46 28v13.7c-.95-.81-2.73-1.7-6-1.7 0 0 0 5.87 3.71 8.01v.01c-1.52.14-2.71 1.42-2.71 2.98-1.66 0-3 1.34-3 3h-20v-26c0-6.63 5.37-12 12-12v1c0 .55.45 1 1 1h2c.55 0 1-.45 1-1v-1c6.63 0 12 5.37 12 12z" fill="#ccd1d9"/></g><g><path d="m32 22c4.42 0 8 3.58 8 8 0 2.55-1.19 4.82-3.05 6.28-.17-1.21-.78-2.28-1.66-3.05s-2.03-1.23-3.29-1.23c1.66 0 3-1.34 3-3s-1.34-3-3-3-3 1.34-3 3 1.34 3 3 3c-2.52 0-4.59 1.85-4.95 4.28-1.86-1.46-3.05-3.73-3.05-6.28 0-4.42 3.58-8 8-8z" fill="#e6e9ed"/></g><g><path d="m36.95 36.28v.01c-1.36 1.07-3.08 1.71-4.95 1.71s-3.59-.64-4.95-1.71v-.01c.36-2.43 2.43-4.28 4.95-4.28 1.26 0 2.41.46 3.29 1.23s1.49 1.84 1.66 3.05z" fill="#75b1f2"/></g><g><circle cx="32" cy="29" fill="#f0d0b4" r="3"/></g><g><path d="m38 7v2c0 .55-.45 1-1 1h-3v2 4 1c0 .55-.45 1-1 1h-2c-.55 0-1-.45-1-1v-1-4-2h-3c-.55 0-1-.45-1-1v-2c0-.55.45-1 1-1h3v-3c0-.55.45-1 1-1h2c.55 0 1 .45 1 1v3h3c.55 0 1 .45 1 1z" fill="#fcd770"/></g><g><path d="m51 62h-41v-3c0-2.761 2.239-5 5-5h36z" fill="#969faa"/></g><g><path d="m44.24 59.98v.01c-1.18 1.27-2.84 2.01-4.61 2.01h-1.63l.32-1.93c.21-1.25.78-2.38 1.61-3.27.33.13.69.2 1.07.2 0 1.66 1.34 3 3 3 .08 0 .16 0 .24-.02z" fill="#b4dd7f"/></g><g><path d="m60 51s-1.52 2.28-3.89 2.86l-.01.01c-.54-.54-1.28-.87-2.1-.87 0-1.06-.55-2-1.39-2.53.25-.43.39-.93.39-1.47.89 0 1.7-.39 2.23-1.01l.01.01c2.87.14 4.76 3 4.76 3z" fill="#b4dd7f"/></g><g><path d="m56.1 53.87c.56.53.9 1.29.9 2.13 0 1.66-1.34 3-3 3 0 1.66-1.34 3-3 3s-3-1.34-3-3c-.54 0-1.04-.14-1.47-.39-.91-.51-1.53-1.49-1.53-2.61 0-.09 0-.18.02-.27.06-.77.42-1.46.97-1.95.53-.48 1.23-.78 2.01-.78 0-.53.14-1.04.39-1.47.46.3 1.02.47 1.61.47 1.12 0 2.1-.62 2.61-1.53.84.53 1.39 1.47 1.39 2.53.82 0 1.56.33 2.1.87z" fill="#ff826e"/></g><g><path d="m53 43c1.66 0 3 1.34 3 3 0 .77-.29 1.46-.77 1.99-.53.62-1.34 1.01-2.23 1.01 0 .54-.14 1.04-.39 1.47-.51.91-1.49 1.53-2.61 1.53-.59 0-1.15-.17-1.61-.47-.84-.53-1.39-1.46-1.39-2.53-.83 0-1.57-.34-2.11-.87-.55-.54-.89-1.3-.89-2.13 0-1.66 1.34-3 3-3 0-1.66 1.34-3 3-3 1.31 0 2.42.83 2.82 2 .12.31.18.65.18 1z" fill="#ff826e"/></g><g><circle cx="51" cy="56" fill="#fc6e51" r="2"/></g><g><circle cx="50" cy="46" fill="#fc6e51" r="2"/></g><g><path d="m47 49c0 1.07.55 2 1.39 2.53-.25.43-.39.94-.39 1.47-.78 0-1.48.3-2.01.78-.11-1-.96-1.78-1.99-1.78-1.1 0-2 .9-2 2s.9 2 2 2c.37 0 .72-.1 1.01-.27h.01c-.02.09-.02.18-.02.27 0 1.12.62 2.1 1.53 2.61-.49.78-1.33 1.3-2.29 1.37-.08.02-.16.02-.24.02-1.66 0-3-1.34-3-3-.38 0-.74-.07-1.07-.2-1.13-.43-1.93-1.52-1.93-2.8 0-1.66 1.34-3 3-3 0-1.56 1.19-2.84 2.71-2.98.1-.02.19-.02.29-.02.31 0 .61.05.89.13.54.53 1.28.87 2.11.87z" fill="#ff826e"/></g><g><path d="m46 41.7c.79.68 1 1.3 1 1.3-1.66 0-3 1.34-3 3 0 .83.34 1.59.89 2.13-.28-.08-.58-.13-.89-.13-.1 0-.19 0-.29.02v-.01c-3.71-2.14-3.71-8.01-3.71-8.01 3.27 0 5.05.89 6 1.7z" fill="#b4dd7f"/></g><g><path d="m45.99 53.78c-.55.49-.91 1.18-.97 1.95h-.01c-.29.17-.64.27-1.01.27-1.1 0-2-.9-2-2s.9-2 2-2c1.03 0 1.88.78 1.99 1.78z" fill="#fc6e51"/></g></g><g><path d="m21 45h14v2h-14z"/><path d="m32 39c4.963 0 9-4.037 9-9s-4.037-9-9-9-9 4.037-9 9 4.037 9 9 9zm-3.823-3.144c.499-1.66 2.045-2.856 3.823-2.856s3.324 1.196 3.823 2.856c-1.101.721-2.413 1.144-3.823 1.144s-2.722-.423-3.823-1.144zm1.823-6.856c0-1.103.897-2 2-2s2 .897 2 2-.897 2-2 2-2-.897-2-2zm2-6c3.859 0 7 3.141 7 7 0 1.686-.6 3.235-1.597 4.445-.544-1.141-1.427-2.077-2.522-2.683.69-.719 1.119-1.69 1.119-2.762 0-2.206-1.794-4-4-4s-4 1.794-4 4c0 1.072.429 2.043 1.119 2.762-1.094.606-1.977 1.542-2.522 2.683-.997-1.21-1.597-2.759-1.597-4.445 0-3.859 3.141-7 7-7z"/><path d="m21 49h2v2h-2z"/><path d="m25 49h2v2h-2z"/><path d="m29 49h2v2h-2z"/><path d="m21 41h4v2h-4z"/><path d="m27 41h10v2h-10z"/><path d="m59 35v-14c0-6.617-5.383-12-12-12-2.853 0-5.572 1.013-7.737 2.844-1.354-.442-2.784-.706-4.263-.793v-.051h2c1.103 0 2-.897 2-2v-2c0-1.103-.897-2-2-2h-2v-2c0-1.103-.897-2-2-2h-2c-1.103 0-2 .897-2 2v2h-2c-1.103 0-2 .897-2 2v2c0 1.103.897 2 2 2h2v.051c-1.479.087-2.909.351-4.263.793-2.165-1.831-4.884-2.844-7.737-2.844-6.617 0-12 5.383-12 12v14c-2.206 0-4 1.794-4 4v2c0 1.103.897 2 2 2h10v10.35c-2.327.826-4 3.043-4 5.65v2c0 1.103.897 2 2 2h25.819 2.815 11.366c1.896 0 3.489-1.327 3.898-3.102 1.775-.409 3.102-2.002 3.102-3.898 0-.593-.142-1.149-.374-1.656 1.956-.972 3.147-2.701 3.206-2.789l.368-.553-.366-.554c-.074-.113-1.588-2.35-4.052-3.162.138-.404.218-.836.218-1.286 0-1.194-.527-2.266-1.36-3h5.36c1.103 0 2-.897 2-2v-2c0-2.206-1.794-4-4-4zm-12-24c5.514 0 10 4.486 10 10v14h-6v-2h4v-2h-4v-2h4v-2h-4.051c-.063-1.067-.222-2.106-.473-3.111 1.573-1.118 2.524-2.927 2.524-4.889 0-3.309-2.691-6-6-6-1.198 0-2.349.373-3.333 1.034-.715-.496-1.473-.928-2.261-1.312 1.643-1.114 3.578-1.722 5.594-1.722zm4 42c-.771 0-1.468.301-2 .78v-.78c0-.046.014-.091.018-.137.316.081.641.137.982.137 1.037 0 1.975-.406 2.687-1.057.196.313.313.673.313 1.057v.78c-.532-.479-1.229-.78-2-.78zm1 3c0 .552-.448 1-1 1s-1-.448-1-1 .448-1 1-1 1 .448 1 1zm-3.22 2h-.78c-1.103 0-2-.897-2-2s.897-2 2-2h.78c-.48.532-.78 1.229-.78 2s.301 1.468.78 2zm-4.78 1c-1.103 0-2-.897-2-2v-.78c.532.48 1.229.78 2 .78.046 0 .091-.016.137-.018.165.646.483 1.227.92 1.705-.313.196-.673.313-1.057.313zm-5-5c0-1.103.897-2 2-2h.78c-.48.532-.78 1.229-.78 2s.301 1.468.78 2h-.78c-1.103 0-2-.897-2-2zm-1.858-1h-18.142v-25c0-5.73 4.405-10.444 10.005-10.95.028 1.079.91 1.95 1.995 1.95h2c1.085 0 1.967-.871 1.995-1.95 5.6.506 10.005 5.22 10.005 10.95v11.928c-1.173-.531-2.78-.928-5-.928h-1v1c0 .227.041 4.9 2.743 7.716-.81.559-1.413 1.397-1.641 2.386-1.45.334-2.588 1.463-2.96 2.898zm12.858-4c.771 0 1.468-.301 2-.78v.78c0 1.103-.897 2-2 2s-2-.897-2-2v-.78c.532.479 1.229.78 2 .78zm-1-3c0-.552.448-1 1-1s1 .448 1 1-.448 1-1 1-1-.448-1-1zm-5 9c-.552 0-1-.448-1-1s.448-1 1-1c.373 0 .699.207.871.515-.339.425-.581.926-.724 1.466-.049.007-.097.019-.147.019zm2.465-2.693c-.543-.791-1.444-1.307-2.465-1.307-.771 0-1.468.301-2 .78v-.78c0-1.103.897-2 2-2 .154 0 .302.034.45.068.473.394 1.032.688 1.651.831.172.745.561 1.403 1.085 1.925-.029.093-.064.184-.085.278-.219.05-.432.119-.636.205zm1.315-4.307h-.78c-1.103 0-2-.897-2-2s.897-2 2-2h.78c-.48.532-.78 1.229-.78 2s.301 1.468.78 2zm-2.496-5.6c-1.346.645-2.284 2.011-2.284 3.6 0 .04.009.078.01.118-1.328-1.536-1.788-3.778-1.936-5.082 2.258.156 3.519.797 4.21 1.364zm7.716 5.6h-.78c.48-.532.78-1.229.78-2s-.301-1.468-.78-2h.78c1.103 0 2 .897 2 2s-.897 2-2 2zm-1-4.22c-.532-.48-1.229-.78-2-.78s-1.468.301-2 .78v-.78c0-1.103.897-2 2-2s2 .897 2 2zm-6.655-28.405c.517-.236 1.076-.375 1.655-.375 2.206 0 4 1.794 4 4 0 1.081-.436 2.089-1.177 2.828-.976-2.492-2.521-4.693-4.478-6.453zm3.655 12.625v11.142c-.784.204-1.48.628-2 1.219v-12.361c0-6.83-5.299-12.435-12-12.949v-2c7.805.518 14 7.015 14 14.949zm-22-19v-2h4v-4h2v4h4v2h-4v8h-2v-8zm-20 12c0-5.514 4.486-10 10-10 2.016 0 3.951.608 5.594 1.721-.788.384-1.547.816-2.261 1.312-.984-.66-2.135-1.033-3.333-1.033-3.309 0-6 2.691-6 6 0 1.962.951 3.771 2.524 4.889-.251 1.006-.411 2.044-.473 3.111h-4.051v2h4v2h-4v2h4v2h-6zm7.177.828c-.741-.739-1.177-1.747-1.177-2.828 0-2.206 1.794-4 4-4 .579 0 1.138.139 1.655.375-1.957 1.76-3.502 3.961-4.478 6.453zm-11.177 19.172v-2c0-1.103.897-2 2-2h8v4zm12-13c0-7.934 6.195-14.431 14-14.949v2c-6.701.514-12 6.119-12 12.949v25h-2zm-4 33v-2c0-2.206 1.794-4 4-4h22.142c.215.826.679 1.546 1.318 2.075-.565.851-.954 1.808-1.123 2.828l-.184 1.097zm28.181 0 .128-.769c.128-.769.422-1.492.859-2.127.287.991.939 1.826 1.81 2.339-.724.358-1.524.557-2.343.557zm5.528-.07c.811-.145 1.55-.533 2.127-1.117.089.027.174.064.265.086.091.394.248.761.446 1.102h-2.911c.025-.024.049-.048.073-.071zm6.291.07c-1.103 0-2-.897-2-2v-.78c.532.48 1.229.78 2 .78s1.468-.301 2-.78v.78c0 1.103-.897 2-2 2zm3-3h-.78c.48-.532.78-1.229.78-2s-.301-1.468-.78-2h.78c1.103 0 2 .897 2 2s-.897 2-2 2zm4.726-7.002c-.483.546-1.333 1.353-2.413 1.755-.421-.301-.894-.532-1.414-.652-.169-.738-.547-1.406-1.086-1.939.027-.089.064-.173.085-.264.63-.145 1.2-.446 1.678-.851 1.429.234 2.564 1.284 3.15 1.951zm2.274-9.998h-7.548c-.53-.911-1.408-1.587-2.452-1.858v-2.142h8c1.103 0 2 .897 2 2z"/></g></g></svg>